<svg width="378" height="378" viewBox="0 0 378 378" fill="none" xmlns="http://www.w3.org/2000/svg">
<path d="M141.851 158.343C141.851 154.261 143.715 150.694 146.43 147.813C149.122 144.962 152.813 142.59 157.037 140.703C165.49 136.911 176.854 134.681 189.176 134.681C201.498 134.681 212.862 136.911 221.315 140.703C225.539 142.596 229.23 144.962 231.922 147.813C234.637 150.694 236.5 154.261 236.5 158.343V229.329C236.5 233.411 234.637 236.978 231.922 239.859C229.23 242.71 225.539 245.082 221.315 246.975C212.862 250.761 201.498 252.991 189.176 252.991C176.854 252.991 165.49 250.761 157.037 246.975C152.813 245.082 149.122 242.716 146.43 239.859C143.715 236.978 141.851 233.411 141.851 229.329V158.343ZM150.725 158.343C150.725 159.567 151.257 161.064 152.884 162.779C154.534 164.53 157.125 166.305 160.663 167.89C167.732 171.055 177.812 173.132 189.176 173.132C200.54 173.132 210.62 171.061 217.689 167.89C221.226 166.305 223.817 164.53 225.468 162.779C227.094 161.064 227.627 159.567 227.627 158.343C227.627 157.118 227.094 155.622 225.468 153.906C223.817 152.155 221.226 150.38 217.689 148.795C210.62 145.63 200.534 143.554 189.176 143.554C177.812 143.554 167.732 145.624 160.663 148.795C157.125 150.38 154.534 152.155 152.884 153.906C151.257 155.622 150.725 157.118 150.725 158.343ZM227.627 172.493C225.734 173.794 223.604 174.959 221.315 175.983C212.862 179.775 201.498 182.005 189.176 182.005C176.854 182.005 165.49 179.775 157.037 175.983C154.832 175.011 152.72 173.843 150.725 172.493V229.329C150.725 230.554 151.257 232.05 152.884 233.766C154.534 235.517 157.125 237.292 160.663 238.877C167.732 242.042 177.812 244.118 189.176 244.118C200.54 244.118 210.62 242.048 217.689 238.877C221.226 237.292 223.817 235.517 225.468 233.766C227.094 232.05 227.627 230.554 227.627 229.329V172.493Z" fill="#171717"/>
<path d="M240.367 370.632C242.961 369.897 244.397 367.154 243.595 364.579C242.794 362.005 240.058 360.575 237.463 361.306C209.204 369.267 179.394 370.167 150.662 363.891C120.339 357.267 92.2578 342.877 69.1704 322.133C46.083 301.388 28.7819 275.001 18.9632 245.557C9.14438 216.113 7.14481 184.623 13.1605 154.173C19.1761 123.724 33.0005 95.3597 53.2786 71.8616C73.5568 48.3635 99.5926 30.5378 128.834 20.1315C158.076 9.72533 189.52 7.09581 220.083 12.5007C236.144 15.3408 251.671 20.3482 266.259 27.3342C264.395 32.5081 264.141 38.3097 265.902 43.9651C270.199 57.7644 284.868 65.4678 298.668 61.1711C312.467 56.8744 320.17 42.2046 315.874 28.4052C311.577 14.6059 296.907 6.90245 283.108 11.1992C278.344 12.6825 274.307 15.4021 271.239 18.8953C255.635 11.3365 238.999 5.93051 221.784 2.88607C189.554 -2.81347 156.396 -0.040617 125.561 10.9328C94.7252 21.9063 67.2701 40.7037 45.8867 65.4826C24.5033 90.2615 9.92532 120.171 3.58176 152.281C-2.76179 184.39 -0.653233 217.597 9.70076 248.646C20.0547 279.694 38.2988 307.52 62.6447 329.395C86.9906 351.271 116.603 366.444 148.579 373.429C178.963 380.067 210.491 379.094 240.367 370.632Z" fill="#171717"/>
<path d="M331.319 64.818C329.548 62.785 326.455 62.6563 324.468 64.4792C322.482 66.3022 322.355 69.3861 324.123 71.4216C341.733 91.6951 354.574 115.686 361.669 141.629C369.195 169.142 370.041 198.055 364.138 225.961C358.234 253.868 345.752 279.961 327.729 302.07C319.251 312.469 309.663 321.846 299.164 330.047C297.996 328.871 296.691 327.795 295.256 326.842C283.83 319.259 268.421 322.374 260.838 333.799C253.255 345.224 256.37 360.634 267.795 368.217C279.221 375.799 294.63 372.685 302.213 361.259C306.914 354.176 307.504 345.56 304.549 338.228C315.865 329.464 326.189 319.412 335.296 308.239C354.302 284.925 367.465 257.41 373.69 227.982C379.916 198.555 379.023 168.066 371.087 139.053C363.581 111.61 349.979 86.2388 331.319 64.818Z" fill="#171717"/>
<path d="M91.9927 131.459C101.537 128.712 107.047 118.747 104.3 109.203C101.553 99.6581 91.5883 94.1479 82.0438 96.8952C72.4993 99.6425 66.9891 109.607 69.7364 119.151C70.5023 121.812 71.8292 124.16 73.5514 126.102C67.4297 137.44 63.005 149.673 60.4672 162.414C56.0733 184.472 57.4864 207.294 64.5681 228.642C71.6499 249.99 84.1572 269.132 100.864 284.191C117.571 299.25 137.904 309.709 159.87 314.544C181.837 319.379 204.682 318.423 226.168 311.77C247.653 305.117 267.042 292.995 282.432 276.593C297.822 260.191 308.687 240.071 313.96 218.206C318.971 197.429 318.77 175.754 313.4 155.102C312.933 153.309 311.07 152.282 309.289 152.794C307.509 153.307 306.486 155.165 306.949 156.959C312 176.492 312.176 196.986 307.437 216.633C302.436 237.368 292.134 256.447 277.539 272.002C262.944 287.556 244.558 299.051 224.183 305.36C203.808 311.669 182.143 312.576 161.313 307.991C140.482 303.406 121.2 293.488 105.356 279.207C89.5131 264.927 77.6523 246.774 70.9366 226.53C64.2209 206.285 62.8808 184.643 67.0477 163.724C69.3831 152 73.4035 140.729 78.9445 130.246C82.8452 132.207 87.4662 132.762 91.9927 131.459Z" fill="#171717"/>
<path d="M107.782 89.8372C106.61 88.4022 106.82 86.285 108.285 85.1504C123.112 73.6657 140.263 65.5219 158.563 61.2955C177.953 56.8172 198.113 56.8572 217.485 61.4122C236.857 65.9671 254.922 74.9152 270.285 87.5649C284.783 99.5032 296.508 114.437 304.664 131.325C305.47 132.994 304.715 134.983 303.026 135.745C301.337 136.508 299.354 135.754 298.546 134.087C290.815 118.135 279.724 104.029 266.02 92.7446C251.451 80.7488 234.32 72.2633 215.949 67.9438C197.578 63.6242 178.46 63.5864 160.073 67.8331C142.776 71.828 126.56 79.5138 112.531 90.3489C111.065 91.4814 108.954 91.2722 107.782 89.8372Z" fill="#171717"/>
</svg>
