<?xml version="1.0" standalone="no"?>
<!DOCTYPE svg PUBLIC "-//W3C//DTD SVG 20010904//EN"
 "http://www.w3.org/TR/2001/REC-SVG-20010904/DTD/svg10.dtd">
<svg version="1.0" xmlns="http://www.w3.org/2000/svg"
 width="700.000000pt" height="700.000000pt" viewBox="0 0 700.000000 700.000000"
 preserveAspectRatio="xMidYMid meet">
<metadata>
Created by potrace 1.14, written by Peter Selinger 2001-2017
</metadata>
<g transform="translate(0.000000,700.000000) scale(0.100000,-0.100000)"
fill="#000000" stroke="none">
<path d="M3278 6996 c-1 -2 -39 -6 -83 -10 -119 -9 -216 -23 -420 -61 -288
-55 -714 -216 -991 -375 -48 -28 -91 -50 -95 -50 -5 0 -9 -4 -9 -10 0 -5 -5
-10 -11 -10 -29 0 -333 -222 -482 -353 -575 -504 -974 -1200 -1121 -1952 -9
-44 -18 -93 -20 -110 -2 -16 -8 -50 -12 -75 -7 -48 -8 -59 -21 -190 -10 -107
-10 -499 0 -605 67 -703 324 -1339 763 -1890 77 -96 362 -392 435 -451 150
-121 243 -192 347 -261 507 -339 1100 -541 1707 -580 222 -14 521 -5 689 21
17 3 53 8 80 11 27 4 101 18 165 31 249 53 281 63 302 103 21 39 11 86 -23
114 -26 22 -61 20 -193 -12 -103 -25 -267 -56 -340 -65 -27 -4 -66 -9 -85 -11
-83 -11 -235 -18 -370 -18 -173 0 -282 7 -440 29 -43 6 -196 32 -230 39 -14 4
-36 8 -50 11 -14 3 -59 14 -100 25 -41 11 -82 22 -90 24 -107 24 -391 135
-558 218 -802 400 -1401 1095 -1678 1947 -30 92 -59 191 -69 240 -59 278 -67
324 -82 495 -14 168 -7 613 12 685 2 8 7 42 10 75 4 33 13 86 20 118 7 31 13
58 13 60 -1 24 40 188 74 302 12 39 22 72 23 75 37 143 187 472 309 678 271
456 678 862 1143 1141 97 58 298 160 408 208 200 86 531 184 705 209 19 3 58
9 85 14 224 40 679 48 905 15 38 -6 150 -23 190 -30 31 -5 210 -44 230 -50 8
-2 42 -11 75 -20 82 -22 254 -81 350 -120 78 -32 177 -75 183 -80 1 -1 -4 -28
-12 -59 -28 -105 -6 -250 52 -348 165 -280 545 -324 771 -88 289 301 70 810
-349 812 -129 0 -250 -47 -337 -132 l-32 -31 -40 21 c-121 61 -406 165 -591
214 -172 46 -275 65 -560 101 -47 7 -546 16 -552 11z"/>
<path d="M3337 5924 c-1 -1 -36 -4 -77 -8 -41 -3 -84 -8 -95 -10 -11 -2 -41
-6 -66 -10 -326 -47 -676 -186 -969 -384 -133 -90 -159 -119 -142 -157 6 -14
23 -30 37 -37 23 -10 32 -7 98 40 510 363 1095 507 1697 417 52 -8 104 -16
115 -19 100 -22 129 -29 190 -47 94 -28 282 -103 379 -151 408 -204 791 -581
990 -975 49 -99 95 -127 133 -83 25 29 24 49 -7 111 -102 205 -269 435 -441
608 -288 287 -623 487 -1018 607 -63 19 -130 37 -150 40 -20 3 -39 8 -42 10
-4 2 -24 6 -45 9 -22 3 -50 8 -64 11 -26 5 -65 10 -153 20 -49 6 -364 13 -370
8z"/>
<path d="M6009 5801 c-46 -47 -40 -82 30 -167 286 -346 496 -729 625 -1144 55
-177 104 -399 121 -547 3 -26 8 -64 10 -83 18 -126 23 -365 12 -563 -6 -113
-12 -163 -32 -307 -20 -135 -84 -402 -130 -535 -14 -41 -45 -123 -85 -230 -36
-92 -178 -368 -250 -482 -65 -104 -199 -287 -280 -385 -48 -57 -315 -326 -365
-368 -17 -14 -52 -42 -78 -63 l-49 -39 -26 25 c-61 57 -163 98 -274 110 -58 7
-173 -19 -238 -54 -328 -175 -324 -647 8 -814 177 -89 388 -54 530 86 114 114
161 289 118 445 l-14 52 72 58 c205 168 407 378 568 591 75 98 153 211 174
248 6 11 33 56 59 100 110 183 224 435 299 657 37 109 103 354 112 417 3 20 7
43 9 51 3 8 7 33 10 55 4 22 8 47 10 55 2 8 7 42 10 75 3 33 8 71 11 85 22
124 22 615 0 750 -3 14 -7 52 -11 85 -4 32 -8 62 -10 65 -1 3 -6 28 -9 55 -39
295 -183 722 -350 1040 -112 213 -218 374 -374 568 -117 147 -155 166 -213
108z"/>
<path d="M1510 5203 c-60 -21 -121 -64 -158 -111 -90 -113 -94 -285 -10 -402
18 -25 18 -26 -23 -110 -99 -203 -183 -470 -215 -680 -3 -19 -7 -42 -9 -50
-18 -69 -25 -408 -12 -540 10 -101 16 -150 22 -180 3 -14 7 -36 10 -50 57
-305 180 -611 350 -869 240 -367 554 -645 950 -841 134 -66 425 -179 425 -165
0 3 10 1 23 -4 26 -10 180 -42 297 -63 113 -19 528 -16 655 5 142 24 151 25
240 48 513 129 967 419 1291 820 123 154 274 403 341 565 72 172 141 409 159
541 3 26 7 50 9 53 18 30 27 492 13 613 -23 185 -62 358 -85 374 -28 21 -71
16 -88 -11 -14 -21 -14 -30 -1 -92 26 -115 35 -172 50 -304 12 -104 13 -368 3
-445 -4 -22 -9 -65 -12 -95 -12 -103 -56 -285 -101 -420 -170 -504 -525 -945
-979 -1217 -206 -123 -457 -226 -655 -268 -8 -2 -36 -8 -63 -14 -178 -41 -510
-59 -692 -37 -129 16 -289 48 -402 81 -688 200 -1243 712 -1496 1380 -75 199
-127 427 -142 625 -15 197 -2 420 35 613 38 195 102 390 183 553 l40 82 31
-13 c85 -36 212 -23 294 29 115 72 178 222 147 351 -25 106 -97 195 -193 237
-61 26 -171 32 -232 11z"/>
<path d="M3300 4493 c-333 -39 -573 -158 -647 -320 l-26 -57 0 -705 c0 -700 0
-706 21 -754 40 -91 122 -165 248 -223 70 -33 207 -77 274 -88 19 -3 45 -8 58
-10 44 -9 188 -20 272 -20 412 0 749 128 851 324 l24 45 0 725 0 725 -23 45
c-120 230 -585 369 -1052 313z m442 -170 c296 -44 504 -171 466 -284 -15 -45
-79 -99 -163 -139 -296 -142 -812 -139 -1098 7 -126 63 -177 135 -143 202 49
94 273 195 481 217 33 4 62 8 64 10 10 9 311 0 393 -13z m-877 -560 c105 -54
257 -99 410 -120 75 -10 369 -10 450 0 149 18 299 61 411 118 41 20 76 34 77
30 3 -5 1 -1006 -2 -1059 -2 -35 -87 -111 -166 -148 -163 -75 -327 -104 -570
-99 -93 2 -179 5 -190 8 -11 3 -41 8 -67 11 -61 8 -212 58 -277 90 -61 31
-117 79 -137 117 -12 23 -14 115 -14 559 0 293 3 530 8 528 4 -2 34 -17 67
-35z"/>
</g>
</svg>
